<svg xmlns="http://www.w3.org/2000/svg" width="1364" height="1210" viewBox="0 0 1364 1210"><rect width="100%" height="100%" fill="#efe6d2"/>
<line x1="0" y1="0" x2="0" y2="880" stroke="#d9cdb3" stroke-width="1"/>
<line x1="110" y1="0" x2="110" y2="880" stroke="#d9cdb3" stroke-width="1"/>
<line x1="220" y1="0" x2="220" y2="880" stroke="#d9cdb3" stroke-width="1"/>
<line x1="330" y1="0" x2="330" y2="880" stroke="#d9cdb3" stroke-width="1"/>
<line x1="440" y1="0" x2="440" y2="880" stroke="#d9cdb3" stroke-width="1"/>
<line x1="550" y1="0" x2="550" y2="880" stroke="#d9cdb3" stroke-width="1"/>
<line x1="660" y1="0" x2="660" y2="880" stroke="#d9cdb3" stroke-width="1"/>
<line x1="770" y1="0" x2="770" y2="880" stroke="#d9cdb3" stroke-width="1"/>
<line x1="880" y1="0" x2="880" y2="880" stroke="#d9cdb3" stroke-width="1"/>
<line x1="990" y1="0" x2="990" y2="880" stroke="#d9cdb3" stroke-width="1"/>
<line x1="1100" y1="0" x2="1100" y2="880" stroke="#d9cdb3" stroke-width="1"/>
<line x1="1210" y1="0" x2="1210" y2="880" stroke="#d9cdb3" stroke-width="1"/>
<line x1="1320" y1="0" x2="1320" y2="880" stroke="#d9cdb3" stroke-width="1"/>
<line x1="0" y1="0" x2="1364" y2="0" stroke="#d9cdb3" stroke-width="1"/>
<line x1="0" y1="110" x2="1364" y2="110" stroke="#d9cdb3" stroke-width="1"/>
<line x1="0" y1="220" x2="1364" y2="220" stroke="#d9cdb3" stroke-width="1"/>
<line x1="0" y1="330" x2="1364" y2="330" stroke="#d9cdb3" stroke-width="1"/>
<line x1="0" y1="440" x2="1364" y2="440" stroke="#d9cdb3" stroke-width="1"/>
<line x1="0" y1="550" x2="1364" y2="550" stroke="#d9cdb3" stroke-width="1"/>
<line x1="0" y1="660" x2="1364" y2="660" stroke="#d9cdb3" stroke-width="1"/>
<line x1="0" y1="770" x2="1364" y2="770" stroke="#d9cdb3" stroke-width="1"/>
<line x1="0" y1="880" x2="1364" y2="880" stroke="#d9cdb3" stroke-width="1"/>
<line x1="0" y1="803.0" x2="1364" y2="803.0" stroke="#7a6a50" stroke-width="3"/>
<line x1="844.7" y1="290.9" x2="888.5" y2="502.7" stroke="#bfae8c" stroke-width="5" stroke-linecap="round"/>
<line x1="818.5" y1="291.4" x2="857.8" y2="508.1" stroke="#bfae8c" stroke-width="5" stroke-linecap="round"/>
<line x1="792.3" y1="291.9" x2="827.0" y2="513.6" stroke="#bfae8c" stroke-width="5" stroke-linecap="round"/>
<line x1="766.2" y1="292.3" x2="796.3" y2="519.0" stroke="#bfae8c" stroke-width="5" stroke-linecap="round"/>
<line x1="740.0" y1="292.8" x2="765.6" y2="524.5" stroke="#bfae8c" stroke-width="5" stroke-linecap="round"/>
<line x1="713.8" y1="293.2" x2="734.8" y2="530.0" stroke="#bfae8c" stroke-width="5" stroke-linecap="round"/>
<line x1="687.6" y1="293.7" x2="704.1" y2="535.4" stroke="#bfae8c" stroke-width="5" stroke-linecap="round"/>
<line x1="661.5" y1="294.1" x2="673.3" y2="540.9" stroke="#bfae8c" stroke-width="5" stroke-linecap="round"/>
<line x1="635.3" y1="294.5" x2="642.6" y2="546.3" stroke="#bfae8c" stroke-width="5" stroke-linecap="round"/>
<line x1="609.1" y1="295.0" x2="611.8" y2="551.8" stroke="#bfae8c" stroke-width="5" stroke-linecap="round"/>
<line x1="582.9" y1="295.4" x2="589.2" y2="538.0" stroke="#bfae8c" stroke-width="5" stroke-linecap="round"/>
<line x1="556.7" y1="295.9" x2="578.7" y2="489.9" stroke="#bfae8c" stroke-width="5" stroke-linecap="round"/>
<line x1="530.6" y1="296.3" x2="568.3" y2="441.9" stroke="#bfae8c" stroke-width="5" stroke-linecap="round"/>
<polyline points="877.0,317.9 844.7,264.0 581.9,264.0 319.2,251.3 282.5,256.5" fill="none" stroke="#8b7a5c" stroke-width="10" stroke-linecap="round" stroke-linejoin="round"/>
<polyline points="282.5,256.5 274.8,272.0 267.3,287.6 260.0,303.3 252.8,319.1 245.7,334.9 238.8,350.9 232.1,366.8 225.5,382.9 219.1,399.0 212.8,415.1 206.7,431.4 200.7,447.7 194.9,464.0 189.3,480.4 183.9,496.8 178.6,513.4 173.4,529.9 168.4,546.5 163.6,563.2 158.9,579.9" fill="none" stroke="#8b7a5c" stroke-width="7" stroke-linecap="round" stroke-linejoin="round"/>
<line x1="833.2" y1="278.3" x2="899.3" y2="394.6" stroke="#4a3b2a" stroke-width="9" stroke-linecap="round"/>
<line x1="899.3" y1="394.6" x2="787.8" y2="531.9" stroke="#4a3b2a" stroke-width="9" stroke-linecap="round"/>
<line x1="787.8" y1="531.9" x2="787.8" y2="712.1" stroke="#4a3b2a" stroke-width="9" stroke-linecap="round"/>
<line x1="787.8" y1="712.1" x2="814.6" y2="785.8" stroke="#4a3b2a" stroke-width="6" stroke-linecap="round"/>
<line x1="814.6" y1="785.8" x2="857.7" y2="803.0" stroke="#4a3b2a" stroke-width="6" stroke-linecap="round"/>
<line x1="271.9" y1="349.7" x2="281.8" y2="538.1" stroke="#4a3b2a" stroke-width="9" stroke-linecap="round"/>
<line x1="281.8" y1="538.1" x2="169.0" y2="699.2" stroke="#4a3b2a" stroke-width="9" stroke-linecap="round"/>
<line x1="169.0" y1="699.2" x2="176.4" y2="784.2" stroke="#4a3b2a" stroke-width="6" stroke-linecap="round"/>
<line x1="176.4" y1="784.2" x2="223.3" y2="803.0" stroke="#4a3b2a" stroke-width="6" stroke-linecap="round"/>
<line x1="326.7" y1="274.2" x2="211.1" y2="371.2" stroke="#4a3b2a" stroke-width="9" stroke-linecap="round"/>
<line x1="877.0" y1="317.9" x2="1029.8" y2="189.7" stroke="#4a3b2a" stroke-width="6" stroke-linecap="round"/>
<line x1="1029.8" y1="189.7" x2="1106.1" y2="217.4" stroke="#4a3b2a" stroke-width="9" stroke-linecap="round"/>
<line x1="1106.1" y1="217.4" x2="1205.0" y2="270.0" stroke="#4a3b2a" stroke-width="6" stroke-linecap="round"/>
<line x1="1065.0" y1="223.0" x2="1192.8" y2="302.9" stroke="#4a3b2a" stroke-width="6" stroke-linecap="round"/>
<line x1="1056.5" y1="199.4" x2="1025.2" y2="113.4" stroke="#4a3b2a" stroke-width="6" stroke-linecap="round"/>
<line x1="888.5" y1="502.7" x2="593.4" y2="555.1" stroke="#4a3b2a" stroke-width="6" stroke-linecap="round"/>
<circle cx="1205.0" cy="270.0" r="5" fill="#d9822b" stroke="#2a1a10" stroke-width="1.5"/>
<text x="1212.0" y="264.0" font-family="sans-serif" font-size="13" fill="#2a1a10">nose</text>
<circle cx="1106.1" cy="217.4" r="5" fill="#d9822b" stroke="#2a1a10" stroke-width="1.5"/>
<text x="1113.1" y="211.4" font-family="sans-serif" font-size="13" fill="#2a1a10">stop</text>
<circle cx="1029.8" cy="189.7" r="5" fill="#d9822b" stroke="#2a1a10" stroke-width="1.5"/>
<text x="1036.8" y="183.7" font-family="sans-serif" font-size="13" fill="#2a1a10">occiput</text>
<circle cx="1108.9" cy="197.9" r="5" fill="#d9822b" stroke="#2a1a10" stroke-width="1.5"/>
<text x="1115.9" y="191.9" font-family="sans-serif" font-size="13" fill="#2a1a10">eye</text>
<circle cx="1065.0" cy="223.0" r="5" fill="#d9822b" stroke="#2a1a10" stroke-width="1.5"/>
<text x="1072.0" y="217.0" font-family="sans-serif" font-size="13" fill="#2a1a10">tmj</text>
<circle cx="1192.8" cy="302.9" r="5" fill="#d9822b" stroke="#2a1a10" stroke-width="1.5"/>
<text x="1199.8" y="296.9" font-family="sans-serif" font-size="13" fill="#2a1a10">chin</text>
<circle cx="1056.5" cy="199.4" r="5" fill="#d9822b" stroke="#2a1a10" stroke-width="1.5"/>
<text x="1063.5" y="193.4" font-family="sans-serif" font-size="13" fill="#2a1a10">ear_base</text>
<circle cx="1025.2" cy="113.4" r="5" fill="#d9822b" stroke="#2a1a10" stroke-width="1.5"/>
<text x="1032.2" y="107.4" font-family="sans-serif" font-size="13" fill="#2a1a10">ear_tip</text>
<circle cx="877.0" cy="317.9" r="5" fill="#d9822b" stroke="#2a1a10" stroke-width="1.5"/>
<text x="884.0" y="311.9" font-family="sans-serif" font-size="13" fill="#2a1a10">neck_root</text>
<circle cx="844.7" cy="264.0" r="5" fill="#d9822b" stroke="#2a1a10" stroke-width="1.5"/>
<text x="851.7" y="258.0" font-family="sans-serif" font-size="13" fill="#2a1a10">withers</text>
<circle cx="833.2" cy="278.3" r="5" fill="#d9822b" stroke="#2a1a10" stroke-width="1.5"/>
<text x="840.2" y="272.3" font-family="sans-serif" font-size="13" fill="#2a1a10">scapula_top</text>
<circle cx="899.3" cy="394.6" r="5" fill="#d9822b" stroke="#2a1a10" stroke-width="1.5"/>
<text x="906.3" y="388.6" font-family="sans-serif" font-size="13" fill="#2a1a10">shoulder</text>
<circle cx="787.8" cy="531.9" r="5" fill="#d9822b" stroke="#2a1a10" stroke-width="1.5"/>
<text x="794.8" y="525.9" font-family="sans-serif" font-size="13" fill="#2a1a10">elbow</text>
<circle cx="787.8" cy="712.1" r="5" fill="#d9822b" stroke="#2a1a10" stroke-width="1.5"/>
<text x="794.8" y="706.1" font-family="sans-serif" font-size="13" fill="#2a1a10">carpus</text>
<circle cx="814.6" cy="785.8" r="5" fill="#d9822b" stroke="#2a1a10" stroke-width="1.5"/>
<text x="821.6" y="779.8" font-family="sans-serif" font-size="13" fill="#2a1a10">front_mcp</text>
<circle cx="857.7" cy="803.0" r="5" fill="#d9822b" stroke="#2a1a10" stroke-width="1.5"/>
<text x="864.7" y="797.0" font-family="sans-serif" font-size="13" fill="#2a1a10">front_toe</text>
<circle cx="319.2" cy="251.3" r="5" fill="#d9822b" stroke="#2a1a10" stroke-width="1.5"/>
<text x="326.2" y="245.3" font-family="sans-serif" font-size="13" fill="#2a1a10">croup</text>
<circle cx="326.7" cy="274.2" r="5" fill="#d9822b" stroke="#2a1a10" stroke-width="1.5"/>
<text x="333.7" y="268.2" font-family="sans-serif" font-size="13" fill="#2a1a10">ilium_crest</text>
<circle cx="271.9" cy="349.7" r="5" fill="#d9822b" stroke="#2a1a10" stroke-width="1.5"/>
<text x="278.9" y="343.7" font-family="sans-serif" font-size="13" fill="#2a1a10">hip</text>
<circle cx="211.1" cy="371.2" r="5" fill="#d9822b" stroke="#2a1a10" stroke-width="1.5"/>
<text x="218.1" y="365.2" font-family="sans-serif" font-size="13" fill="#2a1a10">ischium</text>
<circle cx="281.8" cy="538.1" r="5" fill="#d9822b" stroke="#2a1a10" stroke-width="1.5"/>
<text x="288.8" y="532.1" font-family="sans-serif" font-size="13" fill="#2a1a10">stifle</text>
<circle cx="169.0" cy="699.2" r="5" fill="#d9822b" stroke="#2a1a10" stroke-width="1.5"/>
<text x="176.0" y="693.2" font-family="sans-serif" font-size="13" fill="#2a1a10">hock</text>
<circle cx="176.4" cy="784.2" r="5" fill="#d9822b" stroke="#2a1a10" stroke-width="1.5"/>
<text x="183.4" y="778.2" font-family="sans-serif" font-size="13" fill="#2a1a10">hind_mtp</text>
<circle cx="223.3" cy="803.0" r="5" fill="#d9822b" stroke="#2a1a10" stroke-width="1.5"/>
<text x="230.3" y="797.0" font-family="sans-serif" font-size="13" fill="#2a1a10">hind_toe</text>
<circle cx="282.5" cy="256.5" r="5" fill="#d9822b" stroke="#2a1a10" stroke-width="1.5"/>
<text x="289.5" y="250.5" font-family="sans-serif" font-size="13" fill="#2a1a10">sacrum_end</text>
<circle cx="158.9" cy="579.9" r="5" fill="#d9822b" stroke="#2a1a10" stroke-width="1.5"/>
<text x="165.9" y="573.9" font-family="sans-serif" font-size="13" fill="#2a1a10">tail_tip</text>
<circle cx="888.5" cy="502.7" r="5" fill="#d9822b" stroke="#2a1a10" stroke-width="1.5"/>
<text x="895.5" y="496.7" font-family="sans-serif" font-size="13" fill="#2a1a10">sternum_front</text>
<circle cx="593.4" cy="555.1" r="5" fill="#d9822b" stroke="#2a1a10" stroke-width="1.5"/>
<text x="600.4" y="549.1" font-family="sans-serif" font-size="13" fill="#2a1a10">sternum_back</text>
<text x="16" y="908" font-family="sans-serif" font-size="18" font-weight="bold" fill="#2a1a10">Gray wolf: standing skeleton from species/wolf.yaml (draft)</text>
<text x="16" y="930" font-family="monospace" font-size="15" fill="#2a1a10">withers height from the bones (mm)             wanted 750 [660, 840]   got   707.2   (species size.shoulder_height (field, includes skin and fur))</text>
<text x="16" y="952" font-family="monospace" font-size="15" fill="#2a1a10">croup height / withers (topline slope)         wanted about 1   got   1.024   (outcome of the hind leg; wolves stand roughly level)</text>
<text x="16" y="974" font-family="monospace" font-size="15" fill="#2a1a10">shoulder angle                                 wanted     115   got   111.3   (species angles.shoulder_standing (dog proxy))</text>
<text x="16" y="996" font-family="monospace" font-size="15" fill="#2a1a10">elbow angle                                    wanted     140   got   140.9   (species angles.elbow_standing (dog proxy))</text>
<text x="16" y="1018" font-family="monospace" font-size="15" fill="#2a1a10">scapula elevation                              wanted    60.0   got    60.4   (assumption scapula_elevation (firm, fact-check Q1))</text>
<text x="16" y="1040" font-family="monospace" font-size="15" fill="#2a1a10">carpus angle                                   wanted     160   got   160.0   (species angles.carpus_standing)</text>
<text x="16" y="1062" font-family="monospace" font-size="15" fill="#2a1a10">stifle angle                                   wanted     142   got   142.0   (species angles.stifle_standing)</text>
<text x="16" y="1084" font-family="monospace" font-size="15" fill="#2a1a10">hock angle                                     wanted     140   got   140.0   (species angles.hock_standing)</text>
<text x="16" y="1106" font-family="monospace" font-size="15" fill="#2a1a10">hip angle (pelvic axis vs femur)               wanted ~122 (95-122)   got   127.0   (outcome; standing radiographs about 122 (crest-ischium axis vs femur, fact-check Q3))</text>
<text x="16" y="1128" font-family="monospace" font-size="15" fill="#2a1a10">elbow point height / withers                   wanted    0.53   got   0.536   (species ratios.elbow_height_over_height (photos, includes fur))</text>
<text x="16" y="1150" font-family="monospace" font-size="15" fill="#2a1a10">chest depth / withers                          wanted    0.54   got    0.54   (species ratios (photos))</text>
<text x="16" y="1172" font-family="monospace" font-size="15" fill="#2a1a10">body length (occiput to tail base) / withers   wanted    1.29   got   1.392   (species ratios.body_over_height (photos))</text>
<text x="16" y="1194" font-family="monospace" font-size="15" fill="#2a1a10">front to hind paw (mm)                         wanted       -   got   837.3   (outcome of the spine length)</text>
</svg>